<svg xmlns="http://www.w3.org/2000/svg" viewBox="0 0 320 360">
  <defs>
    <linearGradient id="gold" x1="0" y1="0" x2="1" y2="1">
      <stop offset="0%" stop-color="#FFD700"/>
      <stop offset="100%" stop-color="#D4A437"/>
    </linearGradient>
    <style>
      .f { fill: url(#gold); }
      .o { fill: none; stroke: url(#gold); stroke-width: 3; vector-effect: non-scaling-stroke; stroke-linecap: round; stroke-linejoin: round; }
    </style>
  </defs>

  <!-- LOTUS (coordonnées absolues, symétrie parfaite) -->
  <!-- pétale central -->
  <path class="f" d="M160 60 C150 96 150 136 160 172 C170 136 170 96 160 60 Z"/>
  <path class="o" d="M160 60 C150 96 150 136 160 172 C170 136 170 96 160 60 Z"/>

  <!-- pétales intérieurs -->
  <path class="f" d="M140 92 C130 105 128 126 132 144 C144 135 152 122 156 110 C151 101 145 95 140 92 Z"/>
  <path class="o" d="M140 92 C130 105 128 126 132 144 C144 135 152 122 156 110 C151 101 145 95 140 92 Z"/>

  <path class="f" d="M180 92 C175 95 169 101 164 110 C168 122 176 135 188 144 C192 126 190 105 180 92 Z"/>
  <path class="o" d="M180 92 C175 95 169 101 164 110 C168 122 176 135 188 144 C192 126 190 105 180 92 Z"/>

  <!-- pétales extérieurs -->
  <path class="f" d="M112 118 C96 140 88 167 88 194 C113 186 133 173 148 156 C153 148 156 139 156 130 C142 126 127 122 112 118 Z"/>
  <path class="o" d="M112 118 C96 140 88 167 88 194 C113 186 133 173 148 156 C153 148 156 139 156 130 C142 126 127 122 112 118 Z"/>

  <path class="f" d="M208 118 C193 122 178 126 164 130 C164 139 167 148 172 156 C187 173 207 186 232 194 C232 167 224 140 208 118 Z"/>
  <path class="o" d="M208 118 C193 122 178 126 164 130 C164 139 167 148 172 156 C187 173 207 186 232 194 C232 167 224 140 208 118 Z"/>

  <!-- feuilles de base -->
  <path class="f" d="M128 196 C108 200 90 208 76 218 C114 224 152 224 188 218 C168 208 148 200 128 196 Z"/>
  <path class="o" d="M128 196 C108 200 90 208 76 218 C114 224 152 224 188 218 C168 208 148 200 128 196 Z"/>

  <path class="f" d="M192 196 C172 200 152 208 132 218 C168 224 206 224 244 218 C230 208 212 200 192 196 Z"/>
  <path class="o" d="M192 196 C172 200 152 208 132 218 C168 224 206 224 244 218 C230 208 212 200 192 196 Z"/>

  <!-- TEXTE -->
  <text x="50%" y="332" text-anchor="middle"
        font-size="40" font-family="Georgia, 'Times New Roman', serif"
        fill="url(#gold)" font-weight="700" letter-spacing="2">
    VELVET HOUSE
  </text>
</svg>
