<svg xmlns="http://www.w3.org/2000/svg" viewBox="0 0 64 64">
  <defs>
    <linearGradient id="gold" x1="0" y1="0" x2="1" y2="1">
      <stop offset="0%" stop-color="#FFD700"/>
      <stop offset="100%" stop-color="#D4A437"/>
    </linearGradient>
  </defs>
  <rect width="64" height="64" fill="transparent"/>
  <path fill="url(#gold)" d="M32 6c-3 6-4 12-4 18s2 12 4 18c2-6 4-12 4-18s-1-12-4-18zm0 18c-7-2-13-1-18 2 5 3 11 4 18 2zm0 0c7-2 13-1 18 2-5 3-11 4-18 2zm-14 6c-4 4-6 8-6 14 5-2 9-5 12-9 2-2 4-4 4-7-4 0-7 1-10 2zm28 0c-3-1-6-2-10-2 0 3 2 5 4 7 3 4 7 7 12 9 0-6-2-10-6-14zM18 40c-2 2-4 4-6 8 4-1 8-2 12-4 3-1 5-3 6-6-4 0-8 1-12 2zm28 0c-4-1-8-2-12-2 1 3 3 5 6 6 4 2 8 3 12 4-2-4-4-6-6-8z"/>
</svg>
