<svg xmlns="http://www.w3.org/2000/svg" viewBox="0 0 320 360">
  <defs>
    <linearGradient id="gold" x1="0" y1="0" x2="1" y2="1">
      <stop offset="0%" stop-color="#FFD700"/>
      <stop offset="100%" stop-color="#D4A437"/>
    </linearGradient>
    <style>
      .s { vector-effect: non-scaling-stroke; stroke-linecap:round; stroke-linejoin:round; }
    </style>
  </defs>

  <!-- LOTUS — proportions élégantes, sans recouvrement des traits -->
  <!-- Pétale central -->
  <path class="s" fill="none" stroke="url(#gold)" stroke-width="3.2"
        d="M160 64
           C146 96 146 132 160 164
           C174 132 174 96 160 64 Z"/>

  <!-- Pétales intérieurs (gauche / droite) -->
  <path class="s" fill="none" stroke="url(#gold)" stroke-width="3.2"
        d="M130 98
           C116 114 114 138 122 158
           C136 148 147 134 154 120
           C147 110 138 103 130 98 Z"/>
  <path class="s" fill="none" stroke="url(#gold)" stroke-width="3.2"
        d="M190 98
           C182 103 173 110 166 120
           C173 134 184 148 198 158
           C206 138 204 114 190 98 Z"/>

  <!-- Pétales extérieurs (gauche / droite) -->
  <path class="s" fill="none" stroke="url(#gold)" stroke-width="3.2"
        d="M98 124
           C80 148 72 176 72 204
           C100 196 122 182 138 164
           C144 155 147 145 147 136
           C130 132 114 128 98 124 Z"/>
  <path class="s" fill="none" stroke="url(#gold)" stroke-width="3.2"
        d="M222 124
           C206 128 190 132 173 136
           C173 145 176 155 182 164
           C198 182 220 196 248 204
           C248 176 240 148 222 124 Z"/>

  <!-- Feuilles de base (gauche / droite) -->
  <path class="s" fill="none" stroke="url(#gold)" stroke-width="3.2"
        d="M116 200
           C94 204 75 212 60 223
           C100 229 142 230 182 223
           C160 212 138 204 116 200 Z"/>
  <path class="s" fill="none" stroke="url(#gold)" stroke-width="3.2"
        d="M204 200
           C182 204 160 212 138 223
           C178 230 220 229 260 223
           C245 212 226 204 204 200 Z"/>

  <!-- TEXTE -->
  <text x="50%" y="332" text-anchor="middle"
        font-size="40" font-family="Georgia, 'Times New Roman', serif"
        fill="url(#gold)" font-weight="700" letter-spacing="2">
    VELVET HOUSE
  </text>
</svg>
