<svg xmlns="http://www.w3.org/2000/svg" viewBox="0 0 64 64" shape-rendering="geometricPrecision">
  <defs>
    <linearGradient id="gold" x1="0" y1="0" x2="1" y2="1">
      <stop offset="0%" stop-color="#FFD700"/>
      <stop offset="100%" stop-color="#D4A437"/>
    </linearGradient>
  </defs>

  <!-- fond transparent : on laisse la page gérer le bordeaux -->
  <path fill="url(#gold)" stroke="#D4A437" stroke-width="0.8" stroke-linejoin="round" d="
    M32 10
    C29 16,29 22,32 28
    C35 22,35 16,32 10
    Z

    M20.5 22.5
    C17 26.5,16 31.5,17.7 36.8
    C22.8 34.5,26.5 30.7,29 27.5
    C26.6 24.8,23.8 23.3,20.5 22.5
    Z

    M43.5 22.5
    C40.2 23.3,37.4 24.8,35 27.5
    C37.5 30.7,41.2 34.5,46.3 36.8
    C48 31.5,47 26.5,43.5 22.5
    Z

    M18.2 39.5
    C14.5 40.7,11.7 42.1,9.5 43.8
    C16.5 45.2,24 45.2,31 43.8
    C28.2 41.9,24 40.4,18.2 39.5
    Z

    M45.8 39.5
    C40 40.4,35.8 41.9,33 43.8
    C40 45.2,47.5 45.2,54.5 43.8
    C52.3 42.1,49.5 40.7,45.8 39.5
    Z
  "/>
</svg>
