<svg xmlns="http://www.w3.org/2000/svg" viewBox="0 0 320 360">
  <defs>
    <linearGradient id="gold" x1="0" y1="0" x2="1" y2="1">
      <stop offset="0%" stop-color="#FFD700"/>
      <stop offset="100%" stop-color="#D4A437"/>
    </linearGradient>
    <style>
      .s { fill:none; stroke:url(#gold); stroke-width:3.2; stroke-linecap:round; stroke-linejoin:round; vector-effect:non-scaling-stroke; }
    </style>
  </defs>

  <!-- LOTUS (aucun trait ne se croise) -->
  <!-- pétale central -->
  <path class="s" d="M160 70
                     C148 102 148 138 160 170
                     C172 138 172 102 160 70 Z"/>

  <!-- pétales intérieurs -->
  <path class="s" d="M128 102
                     C114 120 112 143 120 162
                     C134 152 145 139 152 124
                     C144 112 136 106 128 102 Z"/>
  <path class="s" d="M192 102
                     C184 106 176 112 168 124
                     C175 139 186 152 200 162
                     C208 143 206 120 192 102 Z"/>

  <!-- pétales extérieurs (profil doux, sans chevauchement au centre) -->
  <path class="s" d="M96 128
                     C79 152 72 179 72 206
                     C101 197 123 183 139 165
                     C145 156 148 146 148 136
                     C131 133 113 131 96 128 Z"/>
  <path class="s" d="M224 128
                     C207 131 189 133 172 136
                     C172 146 175 156 181 165
                     C197 183 219 197 248 206
                     C248 179 241 152 224 128 Z"/>

  <!-- feuilles de base (séparées, pas de X au centre) -->
  <path class="s" d="M116 202
                     C95 206 76 214 60 225
                     C101 231 143 232 183 225
                     C162 214 140 206 116 202 Z"/>
  <path class="s" d="M204 202
                     C180 206 158 214 137 225
                     C177 232 219 231 260 225
                     C244 214 225 206 204 202 Z"/>

  <!-- TEXTE -->
  <text x="50%" y="332" text-anchor="middle"
        font-size="40" font-family="Georgia, 'Times New Roman', serif"
        fill="url(#gold)" font-weight="700" letter-spacing="2">
    VELVET HOUSE
  </text>
</svg>
