<svg xmlns="http://www.w3.org/2000/svg" viewBox="0 0 320 360">
  <defs>
    <linearGradient id="gold" x1="0" y1="0" x2="1" y2="1">
      <stop offset="0%" stop-color="#FFD700"/>
      <stop offset="100%" stop-color="#D4A437"/>
    </linearGradient>
    <style>
      .fill { fill: url(#gold); }
      .stroke { fill: none; stroke: url(#gold); stroke-width: 3; vector-effect: non-scaling-stroke; stroke-linecap: round; stroke-linejoin: round; }
    </style>
  </defs>

  <!-- LOTUS EN FORMES PLEINES (aucun croisement) -->
  <!-- pétale central -->
  <path class="fill" d="M160 72
                         C148 102 148 136 160 166
                         C172 136 172 102 160 72 Z"/>

  <!-- pétales intérieurs -->
  <path class="fill" d="M128 106
                         C114 122 112 142 120 160
                         C134 150 146 136 154 120
                         C145 112 136 108 128 106 Z"/>
  <path class="fill" d="M192 106
                         C184 108 175 112 166 120
                         C174 136 186 150 200 160
                         C208 142 206 122 192 106 Z"/>

  <!-- pétales extérieurs -->
  <path class="fill" d="M96 132
                         C78 156 72 182 72 206
                         C101 197 123 182 139 164
                         C145 155 148 144 148 136
                         C130 134 113 133 96 132 Z"/>
  <path class="fill" d="M224 132
                         C207 133 190 134 172 136
                         C172 144 175 155 181 164
                         C197 182 219 197 248 206
                         C248 182 242 156 224 132 Z"/>

  <!-- feuilles de base -->
  <path class="fill" d="M116 204
                         C95 208 76 216 60 226
                         C101 233 143 233 183 226
                         C162 216 140 208 116 204 Z"/>
  <path class="fill" d="M204 204
                         C180 208 158 216 137 226
                         C177 233 219 233 260 226
                         C244 216 225 208 204 204 Z"/>

  <!-- (optionnel) fin contour discret autour du lotus plein -->
  <path class="stroke" d="M160 72 C148 102 148 136 160 166 C172 136 172 102 160 72 Z"/>
  <path class="stroke" d="M128 106 C114 122 112 142 120 160 C134 150 146 136 154 120 C145 112 136 108 128 106 Z"/>
  <path class="stroke" d="M192 106 C184 108 175 112 166 120 C174 136 186 150 200 160 C208 142 206 122 192 106 Z"/>
  <path class="stroke" d="M96 132 C78 156 72 182 72 206 C101 197 123 182 139 164 C145 155 148 144 148 136 C130 134 113 133 96 132 Z"/>
  <path class="stroke" d="M224 132 C207 133 190 134 172 136 C172 144 175 155 181 164 C197 182 219 197 248 206 C248 182 242 156 224 132 Z"/>
  <path class="stroke" d="M116 204 C95 208 76 216 60 226 C101 233 143 233 183 226 C162 216 140 208 116 204 Z"/>
  <path class="stroke" d="M204 204 C180 208 158 216 137 226 C177 233 219 233 260 226 C244 216 225 208 204 204 Z"/>

  <!-- TEXTE -->
  <text x="50%" y="332" text-anchor="middle"
        font-size="40" font-family="Georgia, 'Times New Roman', serif"
        fill="url(#gold)" font-weight="700" letter-spacing="2">
    VELVET HOUSE
  </text>
</svg>
